<?xml version="1.0" encoding="UTF-8" standalone="no"?>
<!DOCTYPE svg PUBLIC "-//W3C//DTD SVG 1.1//EN"
 "http://www.w3.org/Graphics/SVG/1.1/DTD/svg11.dtd">
<!-- Generated by graphviz version 2.40.1 (20161225.0304)
 -->
<!-- Title: dependencies Pages: 1 -->
<svg width="6638pt" height="360pt"
 viewBox="0.00 0.00 6638.00 360.00" xmlns="http://www.w3.org/2000/svg" xmlns:xlink="http://www.w3.org/1999/xlink">
<g id="graph0" class="graph" transform="scale(1 1) rotate(0) translate(4 356)">
<title>dependencies</title>
<polygon fill="#ffffff" stroke="transparent" points="-4,4 -4,-356 6634,-356 6634,4 -4,4"/>
<text text-anchor="start" x="3294.0091" y="-42.4" font-family="sans-serif" font-weight="bold" font-size="14.00" fill="#000000">Legend</text>
<polygon fill="#ffffb3" stroke="transparent" points="3081,-10 3081,-30 3101,-30 3101,-10 3081,-10"/>
<text text-anchor="start" x="3104.629" y="-15.4" font-family="sans-serif" font-size="14.00" fill="#000000"> &#160;Declarations</text>
<polygon fill="#8dd3c7" stroke="transparent" points="3194,-10 3194,-30 3214,-30 3214,-10 3194,-10"/>
<text text-anchor="start" x="3217.7251" y="-15.4" font-family="sans-serif" font-size="14.00" fill="#000000"> &#160;Module</text>
<polygon fill="#80b1d3" stroke="transparent" points="3280,-10 3280,-30 3300,-30 3300,-10 3280,-10"/>
<text text-anchor="start" x="3303.7812" y="-15.4" font-family="sans-serif" font-size="14.00" fill="#000000"> &#160;Bootstrap</text>
<polygon fill="#fdb462" stroke="transparent" points="3377,-10 3377,-30 3397,-30 3397,-10 3377,-10"/>
<text text-anchor="start" x="3400.6732" y="-15.4" font-family="sans-serif" font-size="14.00" fill="#000000"> &#160;Providers</text>
<polygon fill="#fb8072" stroke="transparent" points="3473,-10 3473,-30 3493,-30 3493,-10 3473,-10"/>
<text text-anchor="start" x="3496.7258" y="-15.4" font-family="sans-serif" font-size="14.00" fill="#000000"> &#160;Exports</text>
<g id="clust1" class="cluster">
<title>cluster_AppModule</title>
<polygon fill="none" stroke="#000000" stroke-dasharray="1,5" points="8,-146 8,-344 6622,-344 6622,-146 8,-146"/>
</g>
<g id="clust2" class="cluster">
<title>cluster_AppModule_declarations</title>
<polygon fill="none" stroke="#000000" points="1623,-154 1623,-206 6614,-206 6614,-154 1623,-154"/>
</g>
<g id="clust39" class="cluster">
<title>cluster_AppModule_imports</title>
<polygon fill="none" stroke="#000000" points="1467,-154 1467,-206 1615,-206 1615,-154 1467,-154"/>
</g>
<g id="clust41" class="cluster">
<title>cluster_AppModule_bootstrap</title>
<polygon fill="none" stroke="#000000" points="3172,-284 3172,-336 3260,-336 3260,-284 3172,-284"/>
</g>
<g id="clust42" class="cluster">
<title>cluster_AppModule_providers</title>
<polygon fill="none" stroke="#000000" points="16,-154 16,-206 1459,-206 1459,-154 16,-154"/>
</g>
<g id="clust43" class="cluster">
<title>cluster_SettingsPageModule</title>
<polygon fill="none" stroke="#000000" stroke-dasharray="1,5" points="1481,-70 1481,-138 1601,-138 1601,-70 1481,-70"/>
</g>
<g id="clust44" class="cluster">
<title>cluster_SettingsPageModule_declarations</title>
<polygon fill="none" stroke="#000000" points="1489,-78 1489,-130 1593,-130 1593,-78 1489,-78"/>
</g>
<!-- AboutPage -->
<g id="node1" class="node">
<title>AboutPage</title>
<polygon fill="#ffffb3" stroke="#000000" points="6606.2093,-198 6527.7907,-198 6527.7907,-162 6606.2093,-162 6606.2093,-198"/>
<text text-anchor="middle" x="6567" y="-175.8" font-family="Times,serif" font-size="14.00" fill="#000000">AboutPage</text>
</g>
<!-- AppModule -->
<g id="node37" class="node">
<title>AppModule</title>
<polygon fill="#8dd3c7" stroke="#000000" points="3257.6571,-263 3254.6571,-267 3233.6571,-267 3230.6571,-263 3174.3429,-263 3174.3429,-227 3257.6571,-227 3257.6571,-263"/>
<text text-anchor="middle" x="3216" y="-240.8" font-family="Times,serif" font-size="14.00" fill="#000000">AppModule</text>
</g>
<!-- AboutPage&#45;&gt;AppModule -->
<g id="edge1" class="edge">
<title>AboutPage&#45;&gt;AppModule</title>
<path fill="none" stroke="#000000" d="M6567,-198.1985C6567,-222.3563 6567,-262 6567,-262 6567,-262 3267.7625,-262 3267.7625,-262"/>
<polygon fill="#000000" stroke="#000000" points="3267.7625,-258.5001 3257.7625,-262 3267.7624,-265.5001 3267.7625,-258.5001"/>
</g>
<!-- AccordionComponent -->
<g id="node2" class="node">
<title>AccordionComponent</title>
<polygon fill="#ffffb3" stroke="#000000" points="6510.42,-198 6369.58,-198 6369.58,-162 6510.42,-162 6510.42,-198"/>
<text text-anchor="middle" x="6440" y="-175.8" font-family="Times,serif" font-size="14.00" fill="#000000">AccordionComponent</text>
</g>
<!-- AccordionComponent&#45;&gt;AppModule -->
<g id="edge2" class="edge">
<title>AccordionComponent&#45;&gt;AppModule</title>
<path fill="none" stroke="#000000" d="M6440,-198.1532C6440,-221.7566 6440,-260 6440,-260 6440,-260 3267.9424,-260 3267.9424,-260"/>
<polygon fill="#000000" stroke="#000000" points="3267.9425,-256.5001 3257.9424,-260 3267.9424,-263.5001 3267.9425,-256.5001"/>
</g>
<!-- AllergiesForm -->
<g id="node3" class="node">
<title>AllergiesForm</title>
<polygon fill="#ffffb3" stroke="#000000" points="6351.6472,-198 6254.3528,-198 6254.3528,-162 6351.6472,-162 6351.6472,-198"/>
<text text-anchor="middle" x="6303" y="-175.8" font-family="Times,serif" font-size="14.00" fill="#000000">AllergiesForm</text>
</g>
<!-- AllergiesForm&#45;&gt;AppModule -->
<g id="edge3" class="edge">
<title>AllergiesForm&#45;&gt;AppModule</title>
<path fill="none" stroke="#000000" d="M6303,-198.3228C6303,-221.6602 6303,-259 6303,-259 6303,-259 3267.8823,-259 3267.8823,-259"/>
<polygon fill="#000000" stroke="#000000" points="3267.8824,-255.5001 3257.8823,-259 3267.8823,-262.5001 3267.8824,-255.5001"/>
</g>
<!-- AnimatedCirclesComponent -->
<g id="node4" class="node">
<title>AnimatedCirclesComponent</title>
<polygon fill="#ffffb3" stroke="#000000" points="6236.1923,-198 6059.8077,-198 6059.8077,-162 6236.1923,-162 6236.1923,-198"/>
<text text-anchor="middle" x="6148" y="-175.8" font-family="Times,serif" font-size="14.00" fill="#000000">AnimatedCirclesComponent</text>
</g>
<!-- AnimatedCirclesComponent&#45;&gt;AppModule -->
<g id="edge4" class="edge">
<title>AnimatedCirclesComponent&#45;&gt;AppModule</title>
<path fill="none" stroke="#000000" d="M6148,-198.2479C6148,-221.0179 6148,-257 6148,-257 6148,-257 3267.7289,-257 3267.7289,-257"/>
<polygon fill="#000000" stroke="#000000" points="3267.7289,-253.5001 3257.7289,-257 3267.7288,-260.5001 3267.7289,-253.5001"/>
</g>
<!-- BarchartComponent -->
<g id="node5" class="node">
<title>BarchartComponent</title>
<polygon fill="#ffffb3" stroke="#000000" points="6041.5255,-198 5912.4745,-198 5912.4745,-162 6041.5255,-162 6041.5255,-198"/>
<text text-anchor="middle" x="5977" y="-175.8" font-family="Times,serif" font-size="14.00" fill="#000000">BarchartComponent</text>
</g>
<!-- BarchartComponent&#45;&gt;AppModule -->
<g id="edge5" class="edge">
<title>BarchartComponent&#45;&gt;AppModule</title>
<path fill="none" stroke="#000000" d="M5977,-198.1554C5977,-220.3519 5977,-255 5977,-255 5977,-255 3267.7165,-255 3267.7165,-255"/>
<polygon fill="#000000" stroke="#000000" points="3267.7165,-251.5001 3257.7165,-255 3267.7165,-258.5001 3267.7165,-251.5001"/>
</g>
<!-- CardFlippingComponent -->
<g id="node6" class="node">
<title>CardFlippingComponent</title>
<polygon fill="#ffffb3" stroke="#000000" points="5893.9986,-198 5738.0014,-198 5738.0014,-162 5893.9986,-162 5893.9986,-198"/>
<text text-anchor="middle" x="5816" y="-175.8" font-family="Times,serif" font-size="14.00" fill="#000000">CardFlippingComponent</text>
</g>
<!-- CardFlippingComponent&#45;&gt;AppModule -->
<g id="edge6" class="edge">
<title>CardFlippingComponent&#45;&gt;AppModule</title>
<path fill="none" stroke="#000000" d="M5816,-198.2921C5816,-220.2057 5816,-254 5816,-254 5816,-254 3267.8929,-254 3267.8929,-254"/>
<polygon fill="#000000" stroke="#000000" points="3267.8929,-250.5001 3257.8929,-254 3267.8928,-257.5001 3267.8929,-250.5001"/>
</g>
<!-- CircleDecorationComponent -->
<g id="node7" class="node">
<title>CircleDecorationComponent</title>
<polygon fill="#ffffb3" stroke="#000000" points="5719.7324,-198 5542.2676,-198 5542.2676,-162 5719.7324,-162 5719.7324,-198"/>
<text text-anchor="middle" x="5631" y="-175.8" font-family="Times,serif" font-size="14.00" fill="#000000">CircleDecorationComponent</text>
</g>
<!-- CircleDecorationComponent&#45;&gt;AppModule -->
<g id="edge7" class="edge">
<title>CircleDecorationComponent&#45;&gt;AppModule</title>
<path fill="none" stroke="#000000" d="M5631,-198.1686C5631,-219.498 5631,-252 5631,-252 5631,-252 3267.6624,-252 3267.6624,-252"/>
<polygon fill="#000000" stroke="#000000" points="3267.6625,-248.5001 3257.6624,-252 3267.6624,-255.5001 3267.6625,-248.5001"/>
</g>
<!-- ConsumerEnviroEvalPage -->
<g id="node8" class="node">
<title>ConsumerEnviroEvalPage</title>
<polygon fill="#ffffb3" stroke="#000000" points="5524.0211,-198 5359.9789,-198 5359.9789,-162 5524.0211,-162 5524.0211,-198"/>
<text text-anchor="middle" x="5442" y="-175.8" font-family="Times,serif" font-size="14.00" fill="#000000">ConsumerEnviroEvalPage</text>
</g>
<!-- ConsumerEnviroEvalPage&#45;&gt;AppModule -->
<g id="edge8" class="edge">
<title>ConsumerEnviroEvalPage&#45;&gt;AppModule</title>
<path fill="none" stroke="#000000" d="M5442,-198.0267C5442,-218.7672 5442,-250 5442,-250 5442,-250 3267.9899,-250 3267.9899,-250"/>
<polygon fill="#000000" stroke="#000000" points="3267.9899,-246.5001 3257.9899,-250 3267.9898,-253.5001 3267.9899,-246.5001"/>
</g>
<!-- ConsumerMedicalEvalPage -->
<g id="node9" class="node">
<title>ConsumerMedicalEvalPage</title>
<polygon fill="#ffffb3" stroke="#000000" points="5342.2864,-198 5169.7136,-198 5169.7136,-162 5342.2864,-162 5342.2864,-198"/>
<text text-anchor="middle" x="5256" y="-175.8" font-family="Times,serif" font-size="14.00" fill="#000000">ConsumerMedicalEvalPage</text>
</g>
<!-- ConsumerMedicalEvalPage&#45;&gt;AppModule -->
<g id="edge9" class="edge">
<title>ConsumerMedicalEvalPage&#45;&gt;AppModule</title>
<path fill="none" stroke="#000000" d="M5256,-198.1289C5256,-218.5724 5256,-249 5256,-249 5256,-249 3267.6742,-249 3267.6742,-249"/>
<polygon fill="#000000" stroke="#000000" points="3267.6742,-245.5001 3257.6742,-249 3267.6742,-252.5001 3267.6742,-245.5001"/>
</g>
<!-- ConsumerVitalsPage -->
<g id="node10" class="node">
<title>ConsumerVitalsPage</title>
<polygon fill="#ffffb3" stroke="#000000" points="5152.1965,-198 5017.8035,-198 5017.8035,-162 5152.1965,-162 5152.1965,-198"/>
<text text-anchor="middle" x="5085" y="-175.8" font-family="Times,serif" font-size="14.00" fill="#000000">ConsumerVitalsPage</text>
</g>
<!-- ConsumerVitalsPage&#45;&gt;AppModule -->
<g id="edge10" class="edge">
<title>ConsumerVitalsPage&#45;&gt;AppModule</title>
<path fill="none" stroke="#000000" d="M5085,-198.308C5085,-218.1455 5085,-247 5085,-247 5085,-247 3267.6572,-247 3267.6572,-247"/>
<polygon fill="#000000" stroke="#000000" points="3267.6572,-243.5001 3257.6572,-247 3267.6572,-250.5001 3267.6572,-243.5001"/>
</g>
<!-- ContactPage -->
<g id="node11" class="node">
<title>ContactPage</title>
<polygon fill="#ffffb3" stroke="#000000" points="5000.2591,-198 4913.7409,-198 4913.7409,-162 5000.2591,-162 5000.2591,-198"/>
<text text-anchor="middle" x="4957" y="-175.8" font-family="Times,serif" font-size="14.00" fill="#000000">ContactPage</text>
</g>
<!-- ContactPage&#45;&gt;AppModule -->
<g id="edge11" class="edge">
<title>ContactPage&#45;&gt;AppModule</title>
<path fill="none" stroke="#000000" d="M4957,-198.1061C4957,-217.3391 4957,-245 4957,-245 4957,-245 3267.7453,-245 3267.7453,-245"/>
<polygon fill="#000000" stroke="#000000" points="3267.7453,-241.5001 3257.7453,-245 3267.7452,-248.5001 3267.7453,-241.5001"/>
</g>
<!-- ContentDrawerComponent -->
<g id="node12" class="node">
<title>ContentDrawerComponent</title>
<polygon fill="#ffffb3" stroke="#000000" points="4895.6288,-198 4728.3712,-198 4728.3712,-162 4895.6288,-162 4895.6288,-198"/>
<text text-anchor="middle" x="4812" y="-175.8" font-family="Times,serif" font-size="14.00" fill="#000000">ContentDrawerComponent</text>
</g>
<!-- ContentDrawerComponent&#45;&gt;AppModule -->
<g id="edge12" class="edge">
<title>ContentDrawerComponent&#45;&gt;AppModule</title>
<path fill="none" stroke="#000000" d="M4812,-198.1686C4812,-217.0898 4812,-244 4812,-244 4812,-244 3267.8688,-244 3267.8688,-244"/>
<polygon fill="#000000" stroke="#000000" points="3267.8688,-240.5001 3257.8688,-244 3267.8687,-247.5001 3267.8688,-240.5001"/>
</g>
<!-- DashboardPage -->
<g id="node13" class="node">
<title>DashboardPage</title>
<polygon fill="#ffffb3" stroke="#000000" points="4709.8529,-198 4606.1471,-198 4606.1471,-162 4709.8529,-162 4709.8529,-198"/>
<text text-anchor="middle" x="4658" y="-175.8" font-family="Times,serif" font-size="14.00" fill="#000000">DashboardPage</text>
</g>
<!-- DashboardPage&#45;&gt;AppModule -->
<g id="edge13" class="edge">
<title>DashboardPage&#45;&gt;AppModule</title>
<path fill="none" stroke="#000000" d="M4658,-198.2667C4658,-216.5552 4658,-242 4658,-242 4658,-242 3267.9874,-242 3267.9874,-242"/>
<polygon fill="#000000" stroke="#000000" points="3267.9875,-238.5001 3257.9874,-242 3267.9874,-245.5001 3267.9875,-238.5001"/>
</g>
<!-- DoughnutComponent -->
<g id="node14" class="node">
<title>DoughnutComponent</title>
<polygon fill="#ffffb3" stroke="#000000" points="4587.83,-198 4450.17,-198 4450.17,-162 4587.83,-162 4587.83,-198"/>
<text text-anchor="middle" x="4519" y="-175.8" font-family="Times,serif" font-size="14.00" fill="#000000">DoughnutComponent</text>
</g>
<!-- DoughnutComponent&#45;&gt;AppModule -->
<g id="edge14" class="edge">
<title>DoughnutComponent&#45;&gt;AppModule</title>
<path fill="none" stroke="#000000" d="M4519,-198.302C4519,-216.2699 4519,-241 4519,-241 4519,-241 3267.8774,-241 3267.8774,-241"/>
<polygon fill="#000000" stroke="#000000" points="3267.8774,-237.5001 3257.8774,-241 3267.8773,-244.5001 3267.8774,-237.5001"/>
</g>
<!-- EnvironmentalHistoryForm -->
<g id="node15" class="node">
<title>EnvironmentalHistoryForm</title>
<polygon fill="#ffffb3" stroke="#000000" points="4432.5322,-198 4261.4678,-198 4261.4678,-162 4432.5322,-162 4432.5322,-198"/>
<text text-anchor="middle" x="4347" y="-175.8" font-family="Times,serif" font-size="14.00" fill="#000000">EnvironmentalHistoryForm</text>
</g>
<!-- EnvironmentalHistoryForm&#45;&gt;AppModule -->
<g id="edge15" class="edge">
<title>EnvironmentalHistoryForm&#45;&gt;AppModule</title>
<path fill="none" stroke="#000000" d="M4347,-198.0225C4347,-215.3734 4347,-239 4347,-239 4347,-239 3267.9327,-239 3267.9327,-239"/>
<polygon fill="#000000" stroke="#000000" points="3267.9327,-235.5001 3257.9327,-239 3267.9326,-242.5001 3267.9327,-235.5001"/>
</g>
<!-- EvaluationMedicalForm -->
<g id="node16" class="node">
<title>EvaluationMedicalForm</title>
<polygon fill="#ffffb3" stroke="#000000" points="4243.3571,-198 4090.6429,-198 4090.6429,-162 4243.3571,-162 4243.3571,-198"/>
<text text-anchor="middle" x="4167" y="-175.8" font-family="Times,serif" font-size="14.00" fill="#000000">EvaluationMedicalForm</text>
</g>
<!-- EvaluationMedicalForm&#45;&gt;AppModule -->
<g id="edge16" class="edge">
<title>EvaluationMedicalForm&#45;&gt;AppModule</title>
<path fill="none" stroke="#000000" d="M4167,-198.0352C4167,-214.7344 4167,-237 4167,-237 4167,-237 3267.7821,-237 3267.7821,-237"/>
<polygon fill="#000000" stroke="#000000" points="3267.7821,-233.5001 3257.7821,-237 3267.782,-240.5001 3267.7821,-233.5001"/>
</g>
<!-- EvaluationSurgicalForm -->
<g id="node17" class="node">
<title>EvaluationSurgicalForm</title>
<polygon fill="#ffffb3" stroke="#000000" points="4072.6414,-198 3919.3586,-198 3919.3586,-162 4072.6414,-162 4072.6414,-198"/>
<text text-anchor="middle" x="3996" y="-175.8" font-family="Times,serif" font-size="14.00" fill="#000000">EvaluationSurgicalForm</text>
</g>
<!-- EvaluationSurgicalForm&#45;&gt;AppModule -->
<g id="edge17" class="edge">
<title>EvaluationSurgicalForm&#45;&gt;AppModule</title>
<path fill="none" stroke="#000000" d="M3996,-198.027C3996,-214.3976 3996,-236 3996,-236 3996,-236 3267.6604,-236 3267.6604,-236"/>
<polygon fill="#000000" stroke="#000000" points="3267.6605,-232.5001 3257.6604,-236 3267.6604,-239.5001 3267.6605,-232.5001"/>
</g>
<!-- FindRecordsPage -->
<g id="node18" class="node">
<title>FindRecordsPage</title>
<polygon fill="#ffffb3" stroke="#000000" points="3901.2563,-198 3786.7437,-198 3786.7437,-162 3901.2563,-162 3901.2563,-198"/>
<text text-anchor="middle" x="3844" y="-175.8" font-family="Times,serif" font-size="14.00" fill="#000000">FindRecordsPage</text>
</g>
<!-- FindRecordsPage&#45;&gt;AppModule -->
<g id="edge18" class="edge">
<title>FindRecordsPage&#45;&gt;AppModule</title>
<path fill="none" stroke="#000000" d="M3844,-198.2819C3844,-213.9478 3844,-234 3844,-234 3844,-234 3267.6912,-234 3267.6912,-234"/>
<polygon fill="#000000" stroke="#000000" points="3267.6912,-230.5001 3257.6912,-234 3267.6911,-237.5001 3267.6912,-230.5001"/>
</g>
<!-- HelpPage -->
<g id="node19" class="node">
<title>HelpPage</title>
<polygon fill="#ffffb3" stroke="#000000" points="3768.4249,-198 3697.5751,-198 3697.5751,-162 3768.4249,-162 3768.4249,-198"/>
<text text-anchor="middle" x="3733" y="-175.8" font-family="Times,serif" font-size="14.00" fill="#000000">HelpPage</text>
</g>
<!-- HelpPage&#45;&gt;AppModule -->
<g id="edge19" class="edge">
<title>HelpPage&#45;&gt;AppModule</title>
<path fill="none" stroke="#000000" d="M3733,-198.1871C3733,-213.1824 3733,-232 3733,-232 3733,-232 3267.8703,-232 3267.8703,-232"/>
<polygon fill="#000000" stroke="#000000" points="3267.8704,-228.5001 3257.8703,-232 3267.8703,-235.5001 3267.8704,-228.5001"/>
</g>
<!-- HomePage -->
<g id="node20" class="node">
<title>HomePage</title>
<polygon fill="#ffffb3" stroke="#000000" points="3679.9248,-198 3602.0752,-198 3602.0752,-162 3679.9248,-162 3679.9248,-198"/>
<text text-anchor="middle" x="3641" y="-175.8" font-family="Times,serif" font-size="14.00" fill="#000000">HomePage</text>
</g>
<!-- HomePage&#45;&gt;AppModule -->
<g id="edge20" class="edge">
<title>HomePage&#45;&gt;AppModule</title>
<path fill="none" stroke="#000000" d="M3641,-198.1243C3641,-212.7832 3641,-231 3641,-231 3641,-231 3267.9138,-231 3267.9138,-231"/>
<polygon fill="#000000" stroke="#000000" points="3267.9138,-227.5001 3257.9138,-231 3267.9137,-234.5001 3267.9138,-227.5001"/>
</g>
<!-- ListofEnviroComponent -->
<g id="node21" class="node">
<title>ListofEnviroComponent</title>
<polygon fill="#ffffb3" stroke="#000000" points="3584.3753,-198 3431.6247,-198 3431.6247,-162 3584.3753,-162 3584.3753,-198"/>
<text text-anchor="middle" x="3508" y="-175.8" font-family="Times,serif" font-size="14.00" fill="#000000">ListofEnviroComponent</text>
</g>
<!-- ListofEnviroComponent&#45;&gt;AppModule -->
<g id="edge21" class="edge">
<title>ListofEnviroComponent&#45;&gt;AppModule</title>
<path fill="none" stroke="#000000" d="M3508,-198.2458C3508,-212.1772 3508,-229 3508,-229 3508,-229 3267.8365,-229 3267.8365,-229"/>
<polygon fill="#000000" stroke="#000000" points="3267.8365,-225.5001 3257.8365,-229 3267.8364,-232.5001 3267.8365,-225.5001"/>
</g>
<!-- ListofvitalsComponent -->
<g id="node22" class="node">
<title>ListofvitalsComponent</title>
<polygon fill="#ffffb3" stroke="#000000" points="3413.6024,-198 3268.3976,-198 3268.3976,-162 3413.6024,-162 3413.6024,-198"/>
<text text-anchor="middle" x="3341" y="-175.8" font-family="Times,serif" font-size="14.00" fill="#000000">ListofvitalsComponent</text>
</g>
<!-- ListofvitalsComponent&#45;&gt;AppModule -->
<g id="edge22" class="edge">
<title>ListofvitalsComponent&#45;&gt;AppModule</title>
<path fill="none" stroke="#000000" d="M3268.0887,-180C3259.7321,-180 3254.1318,-180 3254.1318,-180 3254.1318,-180 3254.1318,-216.8939 3254.1318,-216.8939"/>
<polygon fill="#000000" stroke="#000000" points="3250.6319,-216.8938 3254.1318,-226.8939 3257.6319,-216.8939 3250.6319,-216.8938"/>
</g>
<!-- MapPage -->
<g id="node23" class="node">
<title>MapPage</title>
<polygon fill="#ffffb3" stroke="#000000" points="3250.3711,-198 3181.6289,-198 3181.6289,-162 3250.3711,-162 3250.3711,-198"/>
<text text-anchor="middle" x="3216" y="-175.8" font-family="Times,serif" font-size="14.00" fill="#000000">MapPage</text>
</g>
<!-- MapPage&#45;&gt;AppModule -->
<g id="edge23" class="edge">
<title>MapPage&#45;&gt;AppModule</title>
<path fill="none" stroke="#000000" d="M3216,-198.1061C3216,-198.1061 3216,-216.991 3216,-216.991"/>
<polygon fill="#000000" stroke="#000000" points="3212.5001,-216.9909 3216,-226.991 3219.5001,-216.991 3212.5001,-216.9909"/>
</g>
<!-- MedicalHistoryForm -->
<g id="node24" class="node">
<title>MedicalHistoryForm</title>
<polygon fill="#ffffb3" stroke="#000000" points="3163.1965,-198 3028.8035,-198 3028.8035,-162 3163.1965,-162 3163.1965,-198"/>
<text text-anchor="middle" x="3096" y="-175.8" font-family="Times,serif" font-size="14.00" fill="#000000">MedicalHistoryForm</text>
</g>
<!-- MedicalHistoryForm&#45;&gt;AppModule -->
<g id="edge24" class="edge">
<title>MedicalHistoryForm&#45;&gt;AppModule</title>
<path fill="none" stroke="#000000" d="M3163.2318,-180C3171.9207,-180 3177.8682,-180 3177.8682,-180 3177.8682,-180 3177.8682,-216.8939 3177.8682,-216.8939"/>
<polygon fill="#000000" stroke="#000000" points="3174.3682,-216.8938 3177.8682,-226.8939 3181.3682,-216.8939 3174.3682,-216.8938"/>
</g>
<!-- MyApp -->
<g id="node25" class="node">
<title>MyApp</title>
<polygon fill="#ffffb3" stroke="#000000" points="3010.5529,-198 2951.4471,-198 2951.4471,-162 3010.5529,-162 3010.5529,-198"/>
<text text-anchor="middle" x="2981" y="-175.8" font-family="Times,serif" font-size="14.00" fill="#000000">MyApp</text>
</g>
<!-- MyApp&#45;&gt;AppModule -->
<g id="edge25" class="edge">
<title>MyApp&#45;&gt;AppModule</title>
<path fill="none" stroke="#000000" d="M2981,-198.2458C2981,-212.1772 2981,-229 2981,-229 2981,-229 3164.2575,-229 3164.2575,-229"/>
<polygon fill="#000000" stroke="#000000" points="3164.2575,-232.5001 3174.2575,-229 3164.2575,-225.5001 3164.2575,-232.5001"/>
</g>
<!-- PatientIDForm -->
<g id="node26" class="node">
<title>PatientIDForm</title>
<polygon fill="#ffffb3" stroke="#000000" points="2932.9846,-198 2833.0154,-198 2833.0154,-162 2932.9846,-162 2932.9846,-198"/>
<text text-anchor="middle" x="2883" y="-175.8" font-family="Times,serif" font-size="14.00" fill="#000000">PatientIDForm</text>
</g>
<!-- PatientIDForm&#45;&gt;AppModule -->
<g id="edge26" class="edge">
<title>PatientIDForm&#45;&gt;AppModule</title>
<path fill="none" stroke="#000000" d="M2883,-198.1243C2883,-212.7832 2883,-231 2883,-231 2883,-231 3164.1625,-231 3164.1625,-231"/>
<polygon fill="#000000" stroke="#000000" points="3164.1625,-234.5001 3174.1625,-231 3164.1625,-227.5001 3164.1625,-234.5001"/>
</g>
<!-- PrescriptionsForm -->
<g id="node27" class="node">
<title>PrescriptionsForm</title>
<polygon fill="#ffffb3" stroke="#000000" points="2814.9286,-198 2695.0714,-198 2695.0714,-162 2814.9286,-162 2814.9286,-198"/>
<text text-anchor="middle" x="2755" y="-175.8" font-family="Times,serif" font-size="14.00" fill="#000000">PrescriptionsForm</text>
</g>
<!-- PrescriptionsForm&#45;&gt;AppModule -->
<g id="edge27" class="edge">
<title>PrescriptionsForm&#45;&gt;AppModule</title>
<path fill="none" stroke="#000000" d="M2755,-198.1871C2755,-213.1824 2755,-232 2755,-232 2755,-232 3164.2763,-232 3164.2763,-232"/>
<polygon fill="#000000" stroke="#000000" points="3164.2763,-235.5001 3174.2763,-232 3164.2762,-228.5001 3164.2763,-235.5001"/>
</g>
<!-- ProfileModalPage -->
<g id="node28" class="node">
<title>ProfileModalPage</title>
<polygon fill="#ffffb3" stroke="#000000" points="2676.8613,-198 2559.1387,-198 2559.1387,-162 2676.8613,-162 2676.8613,-198"/>
<text text-anchor="middle" x="2618" y="-175.8" font-family="Times,serif" font-size="14.00" fill="#000000">ProfileModalPage</text>
</g>
<!-- ProfileModalPage&#45;&gt;AppModule -->
<g id="edge28" class="edge">
<title>ProfileModalPage&#45;&gt;AppModule</title>
<path fill="none" stroke="#000000" d="M2618,-198.2819C2618,-213.9478 2618,-234 2618,-234 2618,-234 3163.9498,-234 3163.9498,-234"/>
<polygon fill="#000000" stroke="#000000" points="3163.9498,-237.5001 3173.9498,-234 3163.9498,-230.5001 3163.9498,-237.5001"/>
</g>
<!-- RadarComponent -->
<g id="node29" class="node">
<title>RadarComponent</title>
<polygon fill="#ffffb3" stroke="#000000" points="2541.2591,-198 2426.7409,-198 2426.7409,-162 2541.2591,-162 2541.2591,-198"/>
<text text-anchor="middle" x="2484" y="-175.8" font-family="Times,serif" font-size="14.00" fill="#000000">RadarComponent</text>
</g>
<!-- RadarComponent&#45;&gt;AppModule -->
<g id="edge29" class="edge">
<title>RadarComponent&#45;&gt;AppModule</title>
<path fill="none" stroke="#000000" d="M2484,-198.027C2484,-214.3976 2484,-236 2484,-236 2484,-236 3164.2817,-236 3164.2817,-236"/>
<polygon fill="#000000" stroke="#000000" points="3164.2817,-239.5001 3174.2817,-236 3164.2816,-232.5001 3164.2817,-239.5001"/>
</g>
<!-- SearchbarObjectIdComponent -->
<g id="node30" class="node">
<title>SearchbarObjectIdComponent</title>
<polygon fill="#ffffb3" stroke="#000000" points="2408.2724,-198 2221.7276,-198 2221.7276,-162 2408.2724,-162 2408.2724,-198"/>
<text text-anchor="middle" x="2315" y="-175.8" font-family="Times,serif" font-size="14.00" fill="#000000">SearchbarObjectIdComponent</text>
</g>
<!-- SearchbarObjectIdComponent&#45;&gt;AppModule -->
<g id="edge30" class="edge">
<title>SearchbarObjectIdComponent&#45;&gt;AppModule</title>
<path fill="none" stroke="#000000" d="M2315,-198.0352C2315,-214.7344 2315,-237 2315,-237 2315,-237 3164.0511,-237 3164.0511,-237"/>
<polygon fill="#000000" stroke="#000000" points="3164.0512,-240.5001 3174.0511,-237 3164.0511,-233.5001 3164.0512,-240.5001"/>
</g>
<!-- SigninForgotPage -->
<g id="node31" class="node">
<title>SigninForgotPage</title>
<polygon fill="#ffffb3" stroke="#000000" points="2203.6095,-198 2086.3905,-198 2086.3905,-162 2203.6095,-162 2203.6095,-198"/>
<text text-anchor="middle" x="2145" y="-175.8" font-family="Times,serif" font-size="14.00" fill="#000000">SigninForgotPage</text>
</g>
<!-- SigninForgotPage&#45;&gt;AppModule -->
<g id="edge31" class="edge">
<title>SigninForgotPage&#45;&gt;AppModule</title>
<path fill="none" stroke="#000000" d="M2145,-198.0225C2145,-215.3734 2145,-239 2145,-239 2145,-239 3164.0155,-239 3164.0155,-239"/>
<polygon fill="#000000" stroke="#000000" points="3164.0156,-242.5001 3174.0155,-239 3164.0155,-235.5001 3164.0156,-242.5001"/>
</g>
<!-- SigninPage -->
<g id="node32" class="node">
<title>SigninPage</title>
<polygon fill="#ffffb3" stroke="#000000" points="2068.7759,-198 1989.2241,-198 1989.2241,-162 2068.7759,-162 2068.7759,-198"/>
<text text-anchor="middle" x="2029" y="-175.8" font-family="Times,serif" font-size="14.00" fill="#000000">SigninPage</text>
</g>
<!-- SigninPage&#45;&gt;AppModule -->
<g id="edge32" class="edge">
<title>SigninPage&#45;&gt;AppModule</title>
<path fill="none" stroke="#000000" d="M2029,-198.302C2029,-216.2699 2029,-241 2029,-241 2029,-241 3164.1027,-241 3164.1027,-241"/>
<polygon fill="#000000" stroke="#000000" points="3164.1027,-244.5001 3174.1027,-241 3164.1027,-237.5001 3164.1027,-244.5001"/>
</g>
<!-- SignupPage -->
<g id="node33" class="node">
<title>SignupPage</title>
<polygon fill="#ffffb3" stroke="#000000" points="1971.3851,-198 1888.6149,-198 1888.6149,-162 1971.3851,-162 1971.3851,-198"/>
<text text-anchor="middle" x="1930" y="-175.8" font-family="Times,serif" font-size="14.00" fill="#000000">SignupPage</text>
</g>
<!-- SignupPage&#45;&gt;AppModule -->
<g id="edge33" class="edge">
<title>SignupPage&#45;&gt;AppModule</title>
<path fill="none" stroke="#000000" d="M1930,-198.2667C1930,-216.5552 1930,-242 1930,-242 1930,-242 3164.307,-242 3164.307,-242"/>
<polygon fill="#000000" stroke="#000000" points="3164.3071,-245.5001 3174.307,-242 3164.307,-238.5001 3164.3071,-245.5001"/>
</g>
<!-- Splash -->
<g id="node34" class="node">
<title>Splash</title>
<polygon fill="#ffffb3" stroke="#000000" points="1871,-198 1817,-198 1817,-162 1871,-162 1871,-198"/>
<text text-anchor="middle" x="1844" y="-175.8" font-family="Times,serif" font-size="14.00" fill="#000000">Splash</text>
</g>
<!-- Splash&#45;&gt;AppModule -->
<g id="edge34" class="edge">
<title>Splash&#45;&gt;AppModule</title>
<path fill="none" stroke="#000000" d="M1844,-198.1686C1844,-217.0898 1844,-244 1844,-244 1844,-244 3164.1896,-244 3164.1896,-244"/>
<polygon fill="#000000" stroke="#000000" points="3164.1897,-247.5001 3174.1896,-244 3164.1896,-240.5001 3164.1897,-247.5001"/>
</g>
<!-- TabsPage -->
<g id="node35" class="node">
<title>TabsPage</title>
<polygon fill="#ffffb3" stroke="#000000" points="1799.4249,-198 1728.5751,-198 1728.5751,-162 1799.4249,-162 1799.4249,-198"/>
<text text-anchor="middle" x="1764" y="-175.8" font-family="Times,serif" font-size="14.00" fill="#000000">TabsPage</text>
</g>
<!-- TabsPage&#45;&gt;AppModule -->
<g id="edge35" class="edge">
<title>TabsPage&#45;&gt;AppModule</title>
<path fill="none" stroke="#000000" d="M1764,-198.1061C1764,-217.3391 1764,-245 1764,-245 1764,-245 3164.1104,-245 3164.1104,-245"/>
<polygon fill="#000000" stroke="#000000" points="3164.1104,-248.5001 3174.1104,-245 3164.1103,-241.5001 3164.1104,-248.5001"/>
</g>
<!-- VitalsForm -->
<g id="node36" class="node">
<title>VitalsForm</title>
<polygon fill="#ffffb3" stroke="#000000" points="1710.7717,-198 1631.2283,-198 1631.2283,-162 1710.7717,-162 1710.7717,-198"/>
<text text-anchor="middle" x="1671" y="-175.8" font-family="Times,serif" font-size="14.00" fill="#000000">VitalsForm</text>
</g>
<!-- VitalsForm&#45;&gt;AppModule -->
<g id="edge36" class="edge">
<title>VitalsForm&#45;&gt;AppModule</title>
<path fill="none" stroke="#000000" d="M1671,-198.308C1671,-218.1455 1671,-247 1671,-247 1671,-247 3164.2752,-247 3164.2752,-247"/>
<polygon fill="#000000" stroke="#000000" points="3164.2753,-250.5001 3174.2752,-247 3164.2752,-243.5001 3164.2753,-250.5001"/>
</g>
<!-- IonicApp  -->
<g id="node39" class="node">
<title>IonicApp </title>
<polygon fill="#80b1d3" stroke="#000000" points="3252.3734,-328 3179.6266,-328 3179.6266,-292 3252.3734,-292 3252.3734,-328"/>
<text text-anchor="middle" x="3216" y="-305.8" font-family="Times,serif" font-size="14.00" fill="#000000">IonicApp </text>
</g>
<!-- AppModule&#45;&gt;IonicApp  -->
<g id="edge38" class="edge">
<title>AppModule&#45;&gt;IonicApp </title>
<path fill="none" stroke="#000000" stroke-dasharray="1,5" d="M3216,-263.1061C3216,-263.1061 3216,-281.991 3216,-281.991"/>
<polygon fill="#000000" stroke="#000000" points="3212.5001,-281.9909 3216,-291.991 3219.5001,-281.991 3212.5001,-281.9909"/>
</g>
<!-- SettingsPageModule -->
<g id="node38" class="node">
<title>SettingsPageModule</title>
<polygon fill="#8dd3c7" stroke="#000000" points="1606.8753,-198 1603.8753,-202 1582.8753,-202 1579.8753,-198 1475.1247,-198 1475.1247,-162 1606.8753,-162 1606.8753,-198"/>
<text text-anchor="middle" x="1541" y="-175.8" font-family="Times,serif" font-size="14.00" fill="#000000">SettingsPageModule</text>
</g>
<!-- SettingsPageModule&#45;&gt;AppModule -->
<g id="edge37" class="edge">
<title>SettingsPageModule&#45;&gt;AppModule</title>
<path fill="none" stroke="#000000" d="M1541,-198.1289C1541,-218.5724 1541,-249 1541,-249 1541,-249 3164.1774,-249 3164.1774,-249"/>
<polygon fill="#000000" stroke="#000000" points="3164.1774,-252.5001 3174.1774,-249 3164.1773,-245.5001 3164.1774,-252.5001"/>
</g>
<!-- AssetManagerProvider -->
<g id="node40" class="node">
<title>AssetManagerProvider</title>
<ellipse fill="#fdb462" stroke="#000000" cx="1351" cy="-180" rx="100.1181" ry="18"/>
<text text-anchor="middle" x="1351" y="-175.8" font-family="Times,serif" font-size="14.00" fill="#000000">AssetManagerProvider</text>
</g>
<!-- AssetManagerProvider&#45;&gt;AppModule -->
<g id="edge39" class="edge">
<title>AssetManagerProvider&#45;&gt;AppModule</title>
<path fill="none" stroke="#000000" d="M1351,-198.0267C1351,-218.7672 1351,-250 1351,-250 1351,-250 3163.9885,-250 3163.9885,-250"/>
<polygon fill="#000000" stroke="#000000" points="3163.9885,-253.5001 3173.9885,-250 3163.9884,-246.5001 3163.9885,-253.5001"/>
</g>
<!-- AuthProvider -->
<g id="node41" class="node">
<title>AuthProvider</title>
<ellipse fill="#fdb462" stroke="#000000" cx="1169" cy="-180" rx="63.7045" ry="18"/>
<text text-anchor="middle" x="1169" y="-175.8" font-family="Times,serif" font-size="14.00" fill="#000000">AuthProvider</text>
</g>
<!-- AuthProvider&#45;&gt;AppModule -->
<g id="edge40" class="edge">
<title>AuthProvider&#45;&gt;AppModule</title>
<path fill="none" stroke="#000000" d="M1169,-198.1686C1169,-219.498 1169,-252 1169,-252 1169,-252 3164.1828,-252 3164.1828,-252"/>
<polygon fill="#000000" stroke="#000000" points="3164.1828,-255.5001 3174.1828,-252 3164.1828,-248.5001 3164.1828,-255.5001"/>
</g>
<!-- ChartsProvider -->
<g id="node42" class="node">
<title>ChartsProvider</title>
<ellipse fill="#fdb462" stroke="#000000" cx="1018" cy="-180" rx="69.4993" ry="18"/>
<text text-anchor="middle" x="1018" y="-175.8" font-family="Times,serif" font-size="14.00" fill="#000000">ChartsProvider</text>
</g>
<!-- ChartsProvider&#45;&gt;AppModule -->
<g id="edge41" class="edge">
<title>ChartsProvider&#45;&gt;AppModule</title>
<path fill="none" stroke="#000000" d="M1018,-198.2921C1018,-220.2057 1018,-254 1018,-254 1018,-254 3164.0547,-254 3164.0547,-254"/>
<polygon fill="#000000" stroke="#000000" points="3164.0548,-257.5001 3174.0547,-254 3164.0547,-250.5001 3164.0548,-257.5001"/>
</g>
<!-- MapControlsProvider -->
<g id="node43" class="node">
<title>MapControlsProvider</title>
<ellipse fill="#fdb462" stroke="#000000" cx="835" cy="-180" rx="95.0062" ry="18"/>
<text text-anchor="middle" x="835" y="-175.8" font-family="Times,serif" font-size="14.00" fill="#000000">MapControlsProvider</text>
</g>
<!-- MapControlsProvider&#45;&gt;AppModule -->
<g id="edge42" class="edge">
<title>MapControlsProvider&#45;&gt;AppModule</title>
<path fill="none" stroke="#000000" d="M835,-198.1554C835,-220.3519 835,-255 835,-255 835,-255 3164.1695,-255 3164.1695,-255"/>
<polygon fill="#000000" stroke="#000000" points="3164.1695,-258.5001 3174.1695,-255 3164.1694,-251.5001 3164.1695,-258.5001"/>
</g>
<!-- ParseProvider -->
<g id="node44" class="node">
<title>ParseProvider</title>
<ellipse fill="#fdb462" stroke="#000000" cx="657" cy="-180" rx="65.4053" ry="18"/>
<text text-anchor="middle" x="657" y="-175.8" font-family="Times,serif" font-size="14.00" fill="#000000">ParseProvider</text>
</g>
<!-- ParseProvider&#45;&gt;AppModule -->
<g id="edge43" class="edge">
<title>ParseProvider&#45;&gt;AppModule</title>
<path fill="none" stroke="#000000" d="M657,-198.2479C657,-221.0179 657,-257 657,-257 657,-257 3164.2448,-257 3164.2448,-257"/>
<polygon fill="#000000" stroke="#000000" points="3164.2449,-260.5001 3174.2448,-257 3164.2448,-253.5001 3164.2449,-260.5001"/>
</g>
<!-- QueryServiceProvider -->
<g id="node45" class="node">
<title>QueryServiceProvider</title>
<ellipse fill="#fdb462" stroke="#000000" cx="476" cy="-180" rx="97.2509" ry="18"/>
<text text-anchor="middle" x="476" y="-175.8" font-family="Times,serif" font-size="14.00" fill="#000000">QueryServiceProvider</text>
</g>
<!-- QueryServiceProvider&#45;&gt;AppModule -->
<g id="edge44" class="edge">
<title>QueryServiceProvider&#45;&gt;AppModule</title>
<path fill="none" stroke="#000000" d="M476,-198.3228C476,-221.6602 476,-259 476,-259 476,-259 3164.3296,-259 3164.3296,-259"/>
<polygon fill="#000000" stroke="#000000" points="3164.3296,-262.5001 3174.3296,-259 3164.3296,-255.5001 3164.3296,-262.5001"/>
</g>
<!-- UiUxProvider -->
<g id="node46" class="node">
<title>UiUxProvider</title>
<ellipse fill="#fdb462" stroke="#000000" cx="295" cy="-180" rx="65.991" ry="18"/>
<text text-anchor="middle" x="295" y="-175.8" font-family="Times,serif" font-size="14.00" fill="#000000">UiUxProvider</text>
</g>
<!-- UiUxProvider&#45;&gt;AppModule -->
<g id="edge45" class="edge">
<title>UiUxProvider&#45;&gt;AppModule</title>
<path fill="none" stroke="#000000" d="M295,-198.1532C295,-221.7566 295,-260 295,-260 295,-260 3164.1466,-260 3164.1466,-260"/>
<polygon fill="#000000" stroke="#000000" points="3164.1467,-263.5001 3174.1466,-260 3164.1466,-256.5001 3164.1467,-263.5001"/>
</g>
<!-- UserpositionProvider -->
<g id="node47" class="node">
<title>UserpositionProvider</title>
<ellipse fill="#fdb462" stroke="#000000" cx="118" cy="-180" rx="93.7784" ry="18"/>
<text text-anchor="middle" x="118" y="-175.8" font-family="Times,serif" font-size="14.00" fill="#000000">UserpositionProvider</text>
</g>
<!-- UserpositionProvider&#45;&gt;AppModule -->
<g id="edge46" class="edge">
<title>UserpositionProvider&#45;&gt;AppModule</title>
<path fill="none" stroke="#000000" d="M118,-198.1985C118,-222.3563 118,-262 118,-262 118,-262 3164.2589,-262 3164.2589,-262"/>
<polygon fill="#000000" stroke="#000000" points="3164.2589,-265.5001 3174.2589,-262 3164.2588,-258.5001 3164.2589,-265.5001"/>
</g>
<!-- SettingsPage -->
<g id="node48" class="node">
<title>SettingsPage</title>
<polygon fill="#ffffb3" stroke="#000000" points="1585.326,-122 1496.674,-122 1496.674,-86 1585.326,-86 1585.326,-122"/>
<text text-anchor="middle" x="1541" y="-99.8" font-family="Times,serif" font-size="14.00" fill="#000000">SettingsPage</text>
</g>
<!-- SettingsPage&#45;&gt;SettingsPageModule -->
<g id="edge47" class="edge">
<title>SettingsPage&#45;&gt;SettingsPageModule</title>
<path fill="none" stroke="#000000" d="M1541,-122.0109C1541,-122.0109 1541,-151.855 1541,-151.855"/>
<polygon fill="#000000" stroke="#000000" points="1537.5001,-151.8549 1541,-161.855 1544.5001,-151.855 1537.5001,-151.8549"/>
</g>
</g>
</svg>
