<?xml version="1.0" encoding="UTF-8" standalone="no"?>
<!DOCTYPE svg PUBLIC "-//W3C//DTD SVG 1.1//EN"
 "http://www.w3.org/Graphics/SVG/1.1/DTD/svg11.dtd">
<!-- Generated by graphviz version 2.40.1 (20161225.0304)
 -->
<!-- Title: dependencies Pages: 1 -->
<svg width="6638pt" height="284pt"
 viewBox="0.00 0.00 6638.00 284.00" xmlns="http://www.w3.org/2000/svg" xmlns:xlink="http://www.w3.org/1999/xlink">
<g id="graph0" class="graph" transform="scale(1 1) rotate(0) translate(4 280)">
<title>dependencies</title>
<polygon fill="#ffffff" stroke="transparent" points="-4,4 -4,-280 6634,-280 6634,4 -4,4"/>
<text text-anchor="start" x="3294.0091" y="-42.4" font-family="sans-serif" font-weight="bold" font-size="14.00" fill="#000000">Legend</text>
<polygon fill="#ffffb3" stroke="transparent" points="3081,-10 3081,-30 3101,-30 3101,-10 3081,-10"/>
<text text-anchor="start" x="3104.629" y="-15.4" font-family="sans-serif" font-size="14.00" fill="#000000"> &#160;Declarations</text>
<polygon fill="#8dd3c7" stroke="transparent" points="3194,-10 3194,-30 3214,-30 3214,-10 3194,-10"/>
<text text-anchor="start" x="3217.7251" y="-15.4" font-family="sans-serif" font-size="14.00" fill="#000000"> &#160;Module</text>
<polygon fill="#80b1d3" stroke="transparent" points="3280,-10 3280,-30 3300,-30 3300,-10 3280,-10"/>
<text text-anchor="start" x="3303.7812" y="-15.4" font-family="sans-serif" font-size="14.00" fill="#000000"> &#160;Bootstrap</text>
<polygon fill="#fdb462" stroke="transparent" points="3377,-10 3377,-30 3397,-30 3397,-10 3377,-10"/>
<text text-anchor="start" x="3400.6732" y="-15.4" font-family="sans-serif" font-size="14.00" fill="#000000"> &#160;Providers</text>
<polygon fill="#fb8072" stroke="transparent" points="3473,-10 3473,-30 3493,-30 3493,-10 3473,-10"/>
<text text-anchor="start" x="3496.7258" y="-15.4" font-family="sans-serif" font-size="14.00" fill="#000000"> &#160;Exports</text>
<g id="clust1" class="cluster">
<title>cluster_AppModule</title>
<polygon fill="none" stroke="#000000" stroke-dasharray="1,5" points="8,-70 8,-268 6622,-268 6622,-70 8,-70"/>
</g>
<g id="clust2" class="cluster">
<title>cluster_AppModule_declarations</title>
<polygon fill="none" stroke="#000000" points="1623,-78 1623,-130 6614,-130 6614,-78 1623,-78"/>
</g>
<g id="clust39" class="cluster">
<title>cluster_AppModule_imports</title>
<polygon fill="none" stroke="#000000" points="1467,-78 1467,-130 1615,-130 1615,-78 1467,-78"/>
</g>
<g id="clust41" class="cluster">
<title>cluster_AppModule_bootstrap</title>
<polygon fill="none" stroke="#000000" points="3172,-208 3172,-260 3260,-260 3260,-208 3172,-208"/>
</g>
<g id="clust42" class="cluster">
<title>cluster_AppModule_providers</title>
<polygon fill="none" stroke="#000000" points="16,-78 16,-130 1459,-130 1459,-78 16,-78"/>
</g>
<!-- AboutPage -->
<g id="node1" class="node">
<title>AboutPage</title>
<polygon fill="#ffffb3" stroke="#000000" points="6606.2093,-122 6527.7907,-122 6527.7907,-86 6606.2093,-86 6606.2093,-122"/>
<text text-anchor="middle" x="6567" y="-99.8" font-family="Times,serif" font-size="14.00" fill="#000000">AboutPage</text>
</g>
<!-- AppModule -->
<g id="node37" class="node">
<title>AppModule</title>
<polygon fill="#8dd3c7" stroke="#000000" points="3257.6571,-187 3254.6571,-191 3233.6571,-191 3230.6571,-187 3174.3429,-187 3174.3429,-151 3257.6571,-151 3257.6571,-187"/>
<text text-anchor="middle" x="3216" y="-164.8" font-family="Times,serif" font-size="14.00" fill="#000000">AppModule</text>
</g>
<!-- AboutPage&#45;&gt;AppModule -->
<g id="edge1" class="edge">
<title>AboutPage&#45;&gt;AppModule</title>
<path fill="none" stroke="#000000" d="M6567,-122.1985C6567,-146.3563 6567,-186 6567,-186 6567,-186 3267.7625,-186 3267.7625,-186"/>
<polygon fill="#000000" stroke="#000000" points="3267.7625,-182.5001 3257.7625,-186 3267.7624,-189.5001 3267.7625,-182.5001"/>
</g>
<!-- AccordionComponent -->
<g id="node2" class="node">
<title>AccordionComponent</title>
<polygon fill="#ffffb3" stroke="#000000" points="6510.42,-122 6369.58,-122 6369.58,-86 6510.42,-86 6510.42,-122"/>
<text text-anchor="middle" x="6440" y="-99.8" font-family="Times,serif" font-size="14.00" fill="#000000">AccordionComponent</text>
</g>
<!-- AccordionComponent&#45;&gt;AppModule -->
<g id="edge2" class="edge">
<title>AccordionComponent&#45;&gt;AppModule</title>
<path fill="none" stroke="#000000" d="M6440,-122.1532C6440,-145.7566 6440,-184 6440,-184 6440,-184 3267.9424,-184 3267.9424,-184"/>
<polygon fill="#000000" stroke="#000000" points="3267.9425,-180.5001 3257.9424,-184 3267.9424,-187.5001 3267.9425,-180.5001"/>
</g>
<!-- AllergiesForm -->
<g id="node3" class="node">
<title>AllergiesForm</title>
<polygon fill="#ffffb3" stroke="#000000" points="6351.6472,-122 6254.3528,-122 6254.3528,-86 6351.6472,-86 6351.6472,-122"/>
<text text-anchor="middle" x="6303" y="-99.8" font-family="Times,serif" font-size="14.00" fill="#000000">AllergiesForm</text>
</g>
<!-- AllergiesForm&#45;&gt;AppModule -->
<g id="edge3" class="edge">
<title>AllergiesForm&#45;&gt;AppModule</title>
<path fill="none" stroke="#000000" d="M6303,-122.3228C6303,-145.6602 6303,-183 6303,-183 6303,-183 3267.8823,-183 3267.8823,-183"/>
<polygon fill="#000000" stroke="#000000" points="3267.8824,-179.5001 3257.8823,-183 3267.8823,-186.5001 3267.8824,-179.5001"/>
</g>
<!-- AnimatedCirclesComponent -->
<g id="node4" class="node">
<title>AnimatedCirclesComponent</title>
<polygon fill="#ffffb3" stroke="#000000" points="6236.1923,-122 6059.8077,-122 6059.8077,-86 6236.1923,-86 6236.1923,-122"/>
<text text-anchor="middle" x="6148" y="-99.8" font-family="Times,serif" font-size="14.00" fill="#000000">AnimatedCirclesComponent</text>
</g>
<!-- AnimatedCirclesComponent&#45;&gt;AppModule -->
<g id="edge4" class="edge">
<title>AnimatedCirclesComponent&#45;&gt;AppModule</title>
<path fill="none" stroke="#000000" d="M6148,-122.2479C6148,-145.0179 6148,-181 6148,-181 6148,-181 3267.7289,-181 3267.7289,-181"/>
<polygon fill="#000000" stroke="#000000" points="3267.7289,-177.5001 3257.7289,-181 3267.7288,-184.5001 3267.7289,-177.5001"/>
</g>
<!-- BarchartComponent -->
<g id="node5" class="node">
<title>BarchartComponent</title>
<polygon fill="#ffffb3" stroke="#000000" points="6041.5255,-122 5912.4745,-122 5912.4745,-86 6041.5255,-86 6041.5255,-122"/>
<text text-anchor="middle" x="5977" y="-99.8" font-family="Times,serif" font-size="14.00" fill="#000000">BarchartComponent</text>
</g>
<!-- BarchartComponent&#45;&gt;AppModule -->
<g id="edge5" class="edge">
<title>BarchartComponent&#45;&gt;AppModule</title>
<path fill="none" stroke="#000000" d="M5977,-122.1554C5977,-144.3519 5977,-179 5977,-179 5977,-179 3267.7165,-179 3267.7165,-179"/>
<polygon fill="#000000" stroke="#000000" points="3267.7165,-175.5001 3257.7165,-179 3267.7165,-182.5001 3267.7165,-175.5001"/>
</g>
<!-- CardFlippingComponent -->
<g id="node6" class="node">
<title>CardFlippingComponent</title>
<polygon fill="#ffffb3" stroke="#000000" points="5893.9986,-122 5738.0014,-122 5738.0014,-86 5893.9986,-86 5893.9986,-122"/>
<text text-anchor="middle" x="5816" y="-99.8" font-family="Times,serif" font-size="14.00" fill="#000000">CardFlippingComponent</text>
</g>
<!-- CardFlippingComponent&#45;&gt;AppModule -->
<g id="edge6" class="edge">
<title>CardFlippingComponent&#45;&gt;AppModule</title>
<path fill="none" stroke="#000000" d="M5816,-122.2921C5816,-144.2057 5816,-178 5816,-178 5816,-178 3267.8929,-178 3267.8929,-178"/>
<polygon fill="#000000" stroke="#000000" points="3267.8929,-174.5001 3257.8929,-178 3267.8928,-181.5001 3267.8929,-174.5001"/>
</g>
<!-- CircleDecorationComponent -->
<g id="node7" class="node">
<title>CircleDecorationComponent</title>
<polygon fill="#ffffb3" stroke="#000000" points="5719.7324,-122 5542.2676,-122 5542.2676,-86 5719.7324,-86 5719.7324,-122"/>
<text text-anchor="middle" x="5631" y="-99.8" font-family="Times,serif" font-size="14.00" fill="#000000">CircleDecorationComponent</text>
</g>
<!-- CircleDecorationComponent&#45;&gt;AppModule -->
<g id="edge7" class="edge">
<title>CircleDecorationComponent&#45;&gt;AppModule</title>
<path fill="none" stroke="#000000" d="M5631,-122.1686C5631,-143.498 5631,-176 5631,-176 5631,-176 3267.6624,-176 3267.6624,-176"/>
<polygon fill="#000000" stroke="#000000" points="3267.6625,-172.5001 3257.6624,-176 3267.6624,-179.5001 3267.6625,-172.5001"/>
</g>
<!-- ConsumerEnviroEvalPage -->
<g id="node8" class="node">
<title>ConsumerEnviroEvalPage</title>
<polygon fill="#ffffb3" stroke="#000000" points="5524.0211,-122 5359.9789,-122 5359.9789,-86 5524.0211,-86 5524.0211,-122"/>
<text text-anchor="middle" x="5442" y="-99.8" font-family="Times,serif" font-size="14.00" fill="#000000">ConsumerEnviroEvalPage</text>
</g>
<!-- ConsumerEnviroEvalPage&#45;&gt;AppModule -->
<g id="edge8" class="edge">
<title>ConsumerEnviroEvalPage&#45;&gt;AppModule</title>
<path fill="none" stroke="#000000" d="M5442,-122.0267C5442,-142.7672 5442,-174 5442,-174 5442,-174 3267.9899,-174 3267.9899,-174"/>
<polygon fill="#000000" stroke="#000000" points="3267.9899,-170.5001 3257.9899,-174 3267.9898,-177.5001 3267.9899,-170.5001"/>
</g>
<!-- ConsumerMedicalEvalPage -->
<g id="node9" class="node">
<title>ConsumerMedicalEvalPage</title>
<polygon fill="#ffffb3" stroke="#000000" points="5342.2864,-122 5169.7136,-122 5169.7136,-86 5342.2864,-86 5342.2864,-122"/>
<text text-anchor="middle" x="5256" y="-99.8" font-family="Times,serif" font-size="14.00" fill="#000000">ConsumerMedicalEvalPage</text>
</g>
<!-- ConsumerMedicalEvalPage&#45;&gt;AppModule -->
<g id="edge9" class="edge">
<title>ConsumerMedicalEvalPage&#45;&gt;AppModule</title>
<path fill="none" stroke="#000000" d="M5256,-122.1289C5256,-142.5724 5256,-173 5256,-173 5256,-173 3267.6742,-173 3267.6742,-173"/>
<polygon fill="#000000" stroke="#000000" points="3267.6742,-169.5001 3257.6742,-173 3267.6742,-176.5001 3267.6742,-169.5001"/>
</g>
<!-- ConsumerVitalsPage -->
<g id="node10" class="node">
<title>ConsumerVitalsPage</title>
<polygon fill="#ffffb3" stroke="#000000" points="5152.1965,-122 5017.8035,-122 5017.8035,-86 5152.1965,-86 5152.1965,-122"/>
<text text-anchor="middle" x="5085" y="-99.8" font-family="Times,serif" font-size="14.00" fill="#000000">ConsumerVitalsPage</text>
</g>
<!-- ConsumerVitalsPage&#45;&gt;AppModule -->
<g id="edge10" class="edge">
<title>ConsumerVitalsPage&#45;&gt;AppModule</title>
<path fill="none" stroke="#000000" d="M5085,-122.308C5085,-142.1455 5085,-171 5085,-171 5085,-171 3267.6572,-171 3267.6572,-171"/>
<polygon fill="#000000" stroke="#000000" points="3267.6572,-167.5001 3257.6572,-171 3267.6572,-174.5001 3267.6572,-167.5001"/>
</g>
<!-- ContactPage -->
<g id="node11" class="node">
<title>ContactPage</title>
<polygon fill="#ffffb3" stroke="#000000" points="5000.2591,-122 4913.7409,-122 4913.7409,-86 5000.2591,-86 5000.2591,-122"/>
<text text-anchor="middle" x="4957" y="-99.8" font-family="Times,serif" font-size="14.00" fill="#000000">ContactPage</text>
</g>
<!-- ContactPage&#45;&gt;AppModule -->
<g id="edge11" class="edge">
<title>ContactPage&#45;&gt;AppModule</title>
<path fill="none" stroke="#000000" d="M4957,-122.1061C4957,-141.3391 4957,-169 4957,-169 4957,-169 3267.7453,-169 3267.7453,-169"/>
<polygon fill="#000000" stroke="#000000" points="3267.7453,-165.5001 3257.7453,-169 3267.7452,-172.5001 3267.7453,-165.5001"/>
</g>
<!-- ContentDrawerComponent -->
<g id="node12" class="node">
<title>ContentDrawerComponent</title>
<polygon fill="#ffffb3" stroke="#000000" points="4895.6288,-122 4728.3712,-122 4728.3712,-86 4895.6288,-86 4895.6288,-122"/>
<text text-anchor="middle" x="4812" y="-99.8" font-family="Times,serif" font-size="14.00" fill="#000000">ContentDrawerComponent</text>
</g>
<!-- ContentDrawerComponent&#45;&gt;AppModule -->
<g id="edge12" class="edge">
<title>ContentDrawerComponent&#45;&gt;AppModule</title>
<path fill="none" stroke="#000000" d="M4812,-122.1686C4812,-141.0898 4812,-168 4812,-168 4812,-168 3267.8688,-168 3267.8688,-168"/>
<polygon fill="#000000" stroke="#000000" points="3267.8688,-164.5001 3257.8688,-168 3267.8687,-171.5001 3267.8688,-164.5001"/>
</g>
<!-- DashboardPage -->
<g id="node13" class="node">
<title>DashboardPage</title>
<polygon fill="#ffffb3" stroke="#000000" points="4709.8529,-122 4606.1471,-122 4606.1471,-86 4709.8529,-86 4709.8529,-122"/>
<text text-anchor="middle" x="4658" y="-99.8" font-family="Times,serif" font-size="14.00" fill="#000000">DashboardPage</text>
</g>
<!-- DashboardPage&#45;&gt;AppModule -->
<g id="edge13" class="edge">
<title>DashboardPage&#45;&gt;AppModule</title>
<path fill="none" stroke="#000000" d="M4658,-122.2667C4658,-140.5552 4658,-166 4658,-166 4658,-166 3267.9874,-166 3267.9874,-166"/>
<polygon fill="#000000" stroke="#000000" points="3267.9875,-162.5001 3257.9874,-166 3267.9874,-169.5001 3267.9875,-162.5001"/>
</g>
<!-- DoughnutComponent -->
<g id="node14" class="node">
<title>DoughnutComponent</title>
<polygon fill="#ffffb3" stroke="#000000" points="4587.83,-122 4450.17,-122 4450.17,-86 4587.83,-86 4587.83,-122"/>
<text text-anchor="middle" x="4519" y="-99.8" font-family="Times,serif" font-size="14.00" fill="#000000">DoughnutComponent</text>
</g>
<!-- DoughnutComponent&#45;&gt;AppModule -->
<g id="edge14" class="edge">
<title>DoughnutComponent&#45;&gt;AppModule</title>
<path fill="none" stroke="#000000" d="M4519,-122.302C4519,-140.2699 4519,-165 4519,-165 4519,-165 3267.8774,-165 3267.8774,-165"/>
<polygon fill="#000000" stroke="#000000" points="3267.8774,-161.5001 3257.8774,-165 3267.8773,-168.5001 3267.8774,-161.5001"/>
</g>
<!-- EnvironmentalHistoryForm -->
<g id="node15" class="node">
<title>EnvironmentalHistoryForm</title>
<polygon fill="#ffffb3" stroke="#000000" points="4432.5322,-122 4261.4678,-122 4261.4678,-86 4432.5322,-86 4432.5322,-122"/>
<text text-anchor="middle" x="4347" y="-99.8" font-family="Times,serif" font-size="14.00" fill="#000000">EnvironmentalHistoryForm</text>
</g>
<!-- EnvironmentalHistoryForm&#45;&gt;AppModule -->
<g id="edge15" class="edge">
<title>EnvironmentalHistoryForm&#45;&gt;AppModule</title>
<path fill="none" stroke="#000000" d="M4347,-122.0225C4347,-139.3734 4347,-163 4347,-163 4347,-163 3267.9327,-163 3267.9327,-163"/>
<polygon fill="#000000" stroke="#000000" points="3267.9327,-159.5001 3257.9327,-163 3267.9326,-166.5001 3267.9327,-159.5001"/>
</g>
<!-- EvaluationMedicalForm -->
<g id="node16" class="node">
<title>EvaluationMedicalForm</title>
<polygon fill="#ffffb3" stroke="#000000" points="4243.3571,-122 4090.6429,-122 4090.6429,-86 4243.3571,-86 4243.3571,-122"/>
<text text-anchor="middle" x="4167" y="-99.8" font-family="Times,serif" font-size="14.00" fill="#000000">EvaluationMedicalForm</text>
</g>
<!-- EvaluationMedicalForm&#45;&gt;AppModule -->
<g id="edge16" class="edge">
<title>EvaluationMedicalForm&#45;&gt;AppModule</title>
<path fill="none" stroke="#000000" d="M4167,-122.0352C4167,-138.7344 4167,-161 4167,-161 4167,-161 3267.7821,-161 3267.7821,-161"/>
<polygon fill="#000000" stroke="#000000" points="3267.7821,-157.5001 3257.7821,-161 3267.782,-164.5001 3267.7821,-157.5001"/>
</g>
<!-- EvaluationSurgicalForm -->
<g id="node17" class="node">
<title>EvaluationSurgicalForm</title>
<polygon fill="#ffffb3" stroke="#000000" points="4072.6414,-122 3919.3586,-122 3919.3586,-86 4072.6414,-86 4072.6414,-122"/>
<text text-anchor="middle" x="3996" y="-99.8" font-family="Times,serif" font-size="14.00" fill="#000000">EvaluationSurgicalForm</text>
</g>
<!-- EvaluationSurgicalForm&#45;&gt;AppModule -->
<g id="edge17" class="edge">
<title>EvaluationSurgicalForm&#45;&gt;AppModule</title>
<path fill="none" stroke="#000000" d="M3996,-122.027C3996,-138.3976 3996,-160 3996,-160 3996,-160 3267.6604,-160 3267.6604,-160"/>
<polygon fill="#000000" stroke="#000000" points="3267.6605,-156.5001 3257.6604,-160 3267.6604,-163.5001 3267.6605,-156.5001"/>
</g>
<!-- FindRecordsPage -->
<g id="node18" class="node">
<title>FindRecordsPage</title>
<polygon fill="#ffffb3" stroke="#000000" points="3901.2563,-122 3786.7437,-122 3786.7437,-86 3901.2563,-86 3901.2563,-122"/>
<text text-anchor="middle" x="3844" y="-99.8" font-family="Times,serif" font-size="14.00" fill="#000000">FindRecordsPage</text>
</g>
<!-- FindRecordsPage&#45;&gt;AppModule -->
<g id="edge18" class="edge">
<title>FindRecordsPage&#45;&gt;AppModule</title>
<path fill="none" stroke="#000000" d="M3844,-122.2819C3844,-137.9478 3844,-158 3844,-158 3844,-158 3267.6912,-158 3267.6912,-158"/>
<polygon fill="#000000" stroke="#000000" points="3267.6912,-154.5001 3257.6912,-158 3267.6911,-161.5001 3267.6912,-154.5001"/>
</g>
<!-- HelpPage -->
<g id="node19" class="node">
<title>HelpPage</title>
<polygon fill="#ffffb3" stroke="#000000" points="3768.4249,-122 3697.5751,-122 3697.5751,-86 3768.4249,-86 3768.4249,-122"/>
<text text-anchor="middle" x="3733" y="-99.8" font-family="Times,serif" font-size="14.00" fill="#000000">HelpPage</text>
</g>
<!-- HelpPage&#45;&gt;AppModule -->
<g id="edge19" class="edge">
<title>HelpPage&#45;&gt;AppModule</title>
<path fill="none" stroke="#000000" d="M3733,-122.1871C3733,-137.1824 3733,-156 3733,-156 3733,-156 3267.8703,-156 3267.8703,-156"/>
<polygon fill="#000000" stroke="#000000" points="3267.8704,-152.5001 3257.8703,-156 3267.8703,-159.5001 3267.8704,-152.5001"/>
</g>
<!-- HomePage -->
<g id="node20" class="node">
<title>HomePage</title>
<polygon fill="#ffffb3" stroke="#000000" points="3679.9248,-122 3602.0752,-122 3602.0752,-86 3679.9248,-86 3679.9248,-122"/>
<text text-anchor="middle" x="3641" y="-99.8" font-family="Times,serif" font-size="14.00" fill="#000000">HomePage</text>
</g>
<!-- HomePage&#45;&gt;AppModule -->
<g id="edge20" class="edge">
<title>HomePage&#45;&gt;AppModule</title>
<path fill="none" stroke="#000000" d="M3641,-122.1243C3641,-136.7832 3641,-155 3641,-155 3641,-155 3267.9138,-155 3267.9138,-155"/>
<polygon fill="#000000" stroke="#000000" points="3267.9138,-151.5001 3257.9138,-155 3267.9137,-158.5001 3267.9138,-151.5001"/>
</g>
<!-- ListofEnviroComponent -->
<g id="node21" class="node">
<title>ListofEnviroComponent</title>
<polygon fill="#ffffb3" stroke="#000000" points="3584.3753,-122 3431.6247,-122 3431.6247,-86 3584.3753,-86 3584.3753,-122"/>
<text text-anchor="middle" x="3508" y="-99.8" font-family="Times,serif" font-size="14.00" fill="#000000">ListofEnviroComponent</text>
</g>
<!-- ListofEnviroComponent&#45;&gt;AppModule -->
<g id="edge21" class="edge">
<title>ListofEnviroComponent&#45;&gt;AppModule</title>
<path fill="none" stroke="#000000" d="M3508,-122.2458C3508,-136.1772 3508,-153 3508,-153 3508,-153 3267.8365,-153 3267.8365,-153"/>
<polygon fill="#000000" stroke="#000000" points="3267.8365,-149.5001 3257.8365,-153 3267.8364,-156.5001 3267.8365,-149.5001"/>
</g>
<!-- ListofvitalsComponent -->
<g id="node22" class="node">
<title>ListofvitalsComponent</title>
<polygon fill="#ffffb3" stroke="#000000" points="3413.6024,-122 3268.3976,-122 3268.3976,-86 3413.6024,-86 3413.6024,-122"/>
<text text-anchor="middle" x="3341" y="-99.8" font-family="Times,serif" font-size="14.00" fill="#000000">ListofvitalsComponent</text>
</g>
<!-- ListofvitalsComponent&#45;&gt;AppModule -->
<g id="edge22" class="edge">
<title>ListofvitalsComponent&#45;&gt;AppModule</title>
<path fill="none" stroke="#000000" d="M3268.0887,-104C3259.7321,-104 3254.1318,-104 3254.1318,-104 3254.1318,-104 3254.1318,-140.8939 3254.1318,-140.8939"/>
<polygon fill="#000000" stroke="#000000" points="3250.6319,-140.8938 3254.1318,-150.8939 3257.6319,-140.8939 3250.6319,-140.8938"/>
</g>
<!-- MapPage -->
<g id="node23" class="node">
<title>MapPage</title>
<polygon fill="#ffffb3" stroke="#000000" points="3250.3711,-122 3181.6289,-122 3181.6289,-86 3250.3711,-86 3250.3711,-122"/>
<text text-anchor="middle" x="3216" y="-99.8" font-family="Times,serif" font-size="14.00" fill="#000000">MapPage</text>
</g>
<!-- MapPage&#45;&gt;AppModule -->
<g id="edge23" class="edge">
<title>MapPage&#45;&gt;AppModule</title>
<path fill="none" stroke="#000000" d="M3216,-122.1061C3216,-122.1061 3216,-140.991 3216,-140.991"/>
<polygon fill="#000000" stroke="#000000" points="3212.5001,-140.9909 3216,-150.991 3219.5001,-140.991 3212.5001,-140.9909"/>
</g>
<!-- MedicalHistoryForm -->
<g id="node24" class="node">
<title>MedicalHistoryForm</title>
<polygon fill="#ffffb3" stroke="#000000" points="3163.1965,-122 3028.8035,-122 3028.8035,-86 3163.1965,-86 3163.1965,-122"/>
<text text-anchor="middle" x="3096" y="-99.8" font-family="Times,serif" font-size="14.00" fill="#000000">MedicalHistoryForm</text>
</g>
<!-- MedicalHistoryForm&#45;&gt;AppModule -->
<g id="edge24" class="edge">
<title>MedicalHistoryForm&#45;&gt;AppModule</title>
<path fill="none" stroke="#000000" d="M3163.2318,-104C3171.9207,-104 3177.8682,-104 3177.8682,-104 3177.8682,-104 3177.8682,-140.8939 3177.8682,-140.8939"/>
<polygon fill="#000000" stroke="#000000" points="3174.3682,-140.8938 3177.8682,-150.8939 3181.3682,-140.8939 3174.3682,-140.8938"/>
</g>
<!-- MyApp -->
<g id="node25" class="node">
<title>MyApp</title>
<polygon fill="#ffffb3" stroke="#000000" points="3010.5529,-122 2951.4471,-122 2951.4471,-86 3010.5529,-86 3010.5529,-122"/>
<text text-anchor="middle" x="2981" y="-99.8" font-family="Times,serif" font-size="14.00" fill="#000000">MyApp</text>
</g>
<!-- MyApp&#45;&gt;AppModule -->
<g id="edge25" class="edge">
<title>MyApp&#45;&gt;AppModule</title>
<path fill="none" stroke="#000000" d="M2981,-122.2458C2981,-136.1772 2981,-153 2981,-153 2981,-153 3164.2575,-153 3164.2575,-153"/>
<polygon fill="#000000" stroke="#000000" points="3164.2575,-156.5001 3174.2575,-153 3164.2575,-149.5001 3164.2575,-156.5001"/>
</g>
<!-- PatientIDForm -->
<g id="node26" class="node">
<title>PatientIDForm</title>
<polygon fill="#ffffb3" stroke="#000000" points="2932.9846,-122 2833.0154,-122 2833.0154,-86 2932.9846,-86 2932.9846,-122"/>
<text text-anchor="middle" x="2883" y="-99.8" font-family="Times,serif" font-size="14.00" fill="#000000">PatientIDForm</text>
</g>
<!-- PatientIDForm&#45;&gt;AppModule -->
<g id="edge26" class="edge">
<title>PatientIDForm&#45;&gt;AppModule</title>
<path fill="none" stroke="#000000" d="M2883,-122.1243C2883,-136.7832 2883,-155 2883,-155 2883,-155 3164.1625,-155 3164.1625,-155"/>
<polygon fill="#000000" stroke="#000000" points="3164.1625,-158.5001 3174.1625,-155 3164.1625,-151.5001 3164.1625,-158.5001"/>
</g>
<!-- PrescriptionsForm -->
<g id="node27" class="node">
<title>PrescriptionsForm</title>
<polygon fill="#ffffb3" stroke="#000000" points="2814.9286,-122 2695.0714,-122 2695.0714,-86 2814.9286,-86 2814.9286,-122"/>
<text text-anchor="middle" x="2755" y="-99.8" font-family="Times,serif" font-size="14.00" fill="#000000">PrescriptionsForm</text>
</g>
<!-- PrescriptionsForm&#45;&gt;AppModule -->
<g id="edge27" class="edge">
<title>PrescriptionsForm&#45;&gt;AppModule</title>
<path fill="none" stroke="#000000" d="M2755,-122.1871C2755,-137.1824 2755,-156 2755,-156 2755,-156 3164.2763,-156 3164.2763,-156"/>
<polygon fill="#000000" stroke="#000000" points="3164.2763,-159.5001 3174.2763,-156 3164.2762,-152.5001 3164.2763,-159.5001"/>
</g>
<!-- ProfileModalPage -->
<g id="node28" class="node">
<title>ProfileModalPage</title>
<polygon fill="#ffffb3" stroke="#000000" points="2676.8613,-122 2559.1387,-122 2559.1387,-86 2676.8613,-86 2676.8613,-122"/>
<text text-anchor="middle" x="2618" y="-99.8" font-family="Times,serif" font-size="14.00" fill="#000000">ProfileModalPage</text>
</g>
<!-- ProfileModalPage&#45;&gt;AppModule -->
<g id="edge28" class="edge">
<title>ProfileModalPage&#45;&gt;AppModule</title>
<path fill="none" stroke="#000000" d="M2618,-122.2819C2618,-137.9478 2618,-158 2618,-158 2618,-158 3163.9498,-158 3163.9498,-158"/>
<polygon fill="#000000" stroke="#000000" points="3163.9498,-161.5001 3173.9498,-158 3163.9498,-154.5001 3163.9498,-161.5001"/>
</g>
<!-- RadarComponent -->
<g id="node29" class="node">
<title>RadarComponent</title>
<polygon fill="#ffffb3" stroke="#000000" points="2541.2591,-122 2426.7409,-122 2426.7409,-86 2541.2591,-86 2541.2591,-122"/>
<text text-anchor="middle" x="2484" y="-99.8" font-family="Times,serif" font-size="14.00" fill="#000000">RadarComponent</text>
</g>
<!-- RadarComponent&#45;&gt;AppModule -->
<g id="edge29" class="edge">
<title>RadarComponent&#45;&gt;AppModule</title>
<path fill="none" stroke="#000000" d="M2484,-122.027C2484,-138.3976 2484,-160 2484,-160 2484,-160 3164.2817,-160 3164.2817,-160"/>
<polygon fill="#000000" stroke="#000000" points="3164.2817,-163.5001 3174.2817,-160 3164.2816,-156.5001 3164.2817,-163.5001"/>
</g>
<!-- SearchbarObjectIdComponent -->
<g id="node30" class="node">
<title>SearchbarObjectIdComponent</title>
<polygon fill="#ffffb3" stroke="#000000" points="2408.2724,-122 2221.7276,-122 2221.7276,-86 2408.2724,-86 2408.2724,-122"/>
<text text-anchor="middle" x="2315" y="-99.8" font-family="Times,serif" font-size="14.00" fill="#000000">SearchbarObjectIdComponent</text>
</g>
<!-- SearchbarObjectIdComponent&#45;&gt;AppModule -->
<g id="edge30" class="edge">
<title>SearchbarObjectIdComponent&#45;&gt;AppModule</title>
<path fill="none" stroke="#000000" d="M2315,-122.0352C2315,-138.7344 2315,-161 2315,-161 2315,-161 3164.0511,-161 3164.0511,-161"/>
<polygon fill="#000000" stroke="#000000" points="3164.0512,-164.5001 3174.0511,-161 3164.0511,-157.5001 3164.0512,-164.5001"/>
</g>
<!-- SigninForgotPage -->
<g id="node31" class="node">
<title>SigninForgotPage</title>
<polygon fill="#ffffb3" stroke="#000000" points="2203.6095,-122 2086.3905,-122 2086.3905,-86 2203.6095,-86 2203.6095,-122"/>
<text text-anchor="middle" x="2145" y="-99.8" font-family="Times,serif" font-size="14.00" fill="#000000">SigninForgotPage</text>
</g>
<!-- SigninForgotPage&#45;&gt;AppModule -->
<g id="edge31" class="edge">
<title>SigninForgotPage&#45;&gt;AppModule</title>
<path fill="none" stroke="#000000" d="M2145,-122.0225C2145,-139.3734 2145,-163 2145,-163 2145,-163 3164.0155,-163 3164.0155,-163"/>
<polygon fill="#000000" stroke="#000000" points="3164.0156,-166.5001 3174.0155,-163 3164.0155,-159.5001 3164.0156,-166.5001"/>
</g>
<!-- SigninPage -->
<g id="node32" class="node">
<title>SigninPage</title>
<polygon fill="#ffffb3" stroke="#000000" points="2068.7759,-122 1989.2241,-122 1989.2241,-86 2068.7759,-86 2068.7759,-122"/>
<text text-anchor="middle" x="2029" y="-99.8" font-family="Times,serif" font-size="14.00" fill="#000000">SigninPage</text>
</g>
<!-- SigninPage&#45;&gt;AppModule -->
<g id="edge32" class="edge">
<title>SigninPage&#45;&gt;AppModule</title>
<path fill="none" stroke="#000000" d="M2029,-122.302C2029,-140.2699 2029,-165 2029,-165 2029,-165 3164.1027,-165 3164.1027,-165"/>
<polygon fill="#000000" stroke="#000000" points="3164.1027,-168.5001 3174.1027,-165 3164.1027,-161.5001 3164.1027,-168.5001"/>
</g>
<!-- SignupPage -->
<g id="node33" class="node">
<title>SignupPage</title>
<polygon fill="#ffffb3" stroke="#000000" points="1971.3851,-122 1888.6149,-122 1888.6149,-86 1971.3851,-86 1971.3851,-122"/>
<text text-anchor="middle" x="1930" y="-99.8" font-family="Times,serif" font-size="14.00" fill="#000000">SignupPage</text>
</g>
<!-- SignupPage&#45;&gt;AppModule -->
<g id="edge33" class="edge">
<title>SignupPage&#45;&gt;AppModule</title>
<path fill="none" stroke="#000000" d="M1930,-122.2667C1930,-140.5552 1930,-166 1930,-166 1930,-166 3164.307,-166 3164.307,-166"/>
<polygon fill="#000000" stroke="#000000" points="3164.3071,-169.5001 3174.307,-166 3164.307,-162.5001 3164.3071,-169.5001"/>
</g>
<!-- Splash -->
<g id="node34" class="node">
<title>Splash</title>
<polygon fill="#ffffb3" stroke="#000000" points="1871,-122 1817,-122 1817,-86 1871,-86 1871,-122"/>
<text text-anchor="middle" x="1844" y="-99.8" font-family="Times,serif" font-size="14.00" fill="#000000">Splash</text>
</g>
<!-- Splash&#45;&gt;AppModule -->
<g id="edge34" class="edge">
<title>Splash&#45;&gt;AppModule</title>
<path fill="none" stroke="#000000" d="M1844,-122.1686C1844,-141.0898 1844,-168 1844,-168 1844,-168 3164.1896,-168 3164.1896,-168"/>
<polygon fill="#000000" stroke="#000000" points="3164.1897,-171.5001 3174.1896,-168 3164.1896,-164.5001 3164.1897,-171.5001"/>
</g>
<!-- TabsPage -->
<g id="node35" class="node">
<title>TabsPage</title>
<polygon fill="#ffffb3" stroke="#000000" points="1799.4249,-122 1728.5751,-122 1728.5751,-86 1799.4249,-86 1799.4249,-122"/>
<text text-anchor="middle" x="1764" y="-99.8" font-family="Times,serif" font-size="14.00" fill="#000000">TabsPage</text>
</g>
<!-- TabsPage&#45;&gt;AppModule -->
<g id="edge35" class="edge">
<title>TabsPage&#45;&gt;AppModule</title>
<path fill="none" stroke="#000000" d="M1764,-122.1061C1764,-141.3391 1764,-169 1764,-169 1764,-169 3164.1104,-169 3164.1104,-169"/>
<polygon fill="#000000" stroke="#000000" points="3164.1104,-172.5001 3174.1104,-169 3164.1103,-165.5001 3164.1104,-172.5001"/>
</g>
<!-- VitalsForm -->
<g id="node36" class="node">
<title>VitalsForm</title>
<polygon fill="#ffffb3" stroke="#000000" points="1710.7717,-122 1631.2283,-122 1631.2283,-86 1710.7717,-86 1710.7717,-122"/>
<text text-anchor="middle" x="1671" y="-99.8" font-family="Times,serif" font-size="14.00" fill="#000000">VitalsForm</text>
</g>
<!-- VitalsForm&#45;&gt;AppModule -->
<g id="edge36" class="edge">
<title>VitalsForm&#45;&gt;AppModule</title>
<path fill="none" stroke="#000000" d="M1671,-122.308C1671,-142.1455 1671,-171 1671,-171 1671,-171 3164.2752,-171 3164.2752,-171"/>
<polygon fill="#000000" stroke="#000000" points="3164.2753,-174.5001 3174.2752,-171 3164.2752,-167.5001 3164.2753,-174.5001"/>
</g>
<!-- IonicApp  -->
<g id="node39" class="node">
<title>IonicApp </title>
<polygon fill="#80b1d3" stroke="#000000" points="3252.3734,-252 3179.6266,-252 3179.6266,-216 3252.3734,-216 3252.3734,-252"/>
<text text-anchor="middle" x="3216" y="-229.8" font-family="Times,serif" font-size="14.00" fill="#000000">IonicApp </text>
</g>
<!-- AppModule&#45;&gt;IonicApp  -->
<g id="edge38" class="edge">
<title>AppModule&#45;&gt;IonicApp </title>
<path fill="none" stroke="#000000" stroke-dasharray="1,5" d="M3216,-187.1061C3216,-187.1061 3216,-205.991 3216,-205.991"/>
<polygon fill="#000000" stroke="#000000" points="3212.5001,-205.9909 3216,-215.991 3219.5001,-205.991 3212.5001,-205.9909"/>
</g>
<!-- SettingsPageModule -->
<g id="node38" class="node">
<title>SettingsPageModule</title>
<polygon fill="#8dd3c7" stroke="#000000" points="1606.8753,-122 1603.8753,-126 1582.8753,-126 1579.8753,-122 1475.1247,-122 1475.1247,-86 1606.8753,-86 1606.8753,-122"/>
<text text-anchor="middle" x="1541" y="-99.8" font-family="Times,serif" font-size="14.00" fill="#000000">SettingsPageModule</text>
</g>
<!-- SettingsPageModule&#45;&gt;AppModule -->
<g id="edge37" class="edge">
<title>SettingsPageModule&#45;&gt;AppModule</title>
<path fill="none" stroke="#000000" d="M1541,-122.1289C1541,-142.5724 1541,-173 1541,-173 1541,-173 3164.1774,-173 3164.1774,-173"/>
<polygon fill="#000000" stroke="#000000" points="3164.1774,-176.5001 3174.1774,-173 3164.1773,-169.5001 3164.1774,-176.5001"/>
</g>
<!-- AssetManagerProvider -->
<g id="node40" class="node">
<title>AssetManagerProvider</title>
<ellipse fill="#fdb462" stroke="#000000" cx="1351" cy="-104" rx="100.1181" ry="18"/>
<text text-anchor="middle" x="1351" y="-99.8" font-family="Times,serif" font-size="14.00" fill="#000000">AssetManagerProvider</text>
</g>
<!-- AssetManagerProvider&#45;&gt;AppModule -->
<g id="edge39" class="edge">
<title>AssetManagerProvider&#45;&gt;AppModule</title>
<path fill="none" stroke="#000000" d="M1351,-122.0267C1351,-142.7672 1351,-174 1351,-174 1351,-174 3163.9885,-174 3163.9885,-174"/>
<polygon fill="#000000" stroke="#000000" points="3163.9885,-177.5001 3173.9885,-174 3163.9884,-170.5001 3163.9885,-177.5001"/>
</g>
<!-- AuthProvider -->
<g id="node41" class="node">
<title>AuthProvider</title>
<ellipse fill="#fdb462" stroke="#000000" cx="1169" cy="-104" rx="63.7045" ry="18"/>
<text text-anchor="middle" x="1169" y="-99.8" font-family="Times,serif" font-size="14.00" fill="#000000">AuthProvider</text>
</g>
<!-- AuthProvider&#45;&gt;AppModule -->
<g id="edge40" class="edge">
<title>AuthProvider&#45;&gt;AppModule</title>
<path fill="none" stroke="#000000" d="M1169,-122.1686C1169,-143.498 1169,-176 1169,-176 1169,-176 3164.1828,-176 3164.1828,-176"/>
<polygon fill="#000000" stroke="#000000" points="3164.1828,-179.5001 3174.1828,-176 3164.1828,-172.5001 3164.1828,-179.5001"/>
</g>
<!-- ChartsProvider -->
<g id="node42" class="node">
<title>ChartsProvider</title>
<ellipse fill="#fdb462" stroke="#000000" cx="1018" cy="-104" rx="69.4993" ry="18"/>
<text text-anchor="middle" x="1018" y="-99.8" font-family="Times,serif" font-size="14.00" fill="#000000">ChartsProvider</text>
</g>
<!-- ChartsProvider&#45;&gt;AppModule -->
<g id="edge41" class="edge">
<title>ChartsProvider&#45;&gt;AppModule</title>
<path fill="none" stroke="#000000" d="M1018,-122.2921C1018,-144.2057 1018,-178 1018,-178 1018,-178 3164.0547,-178 3164.0547,-178"/>
<polygon fill="#000000" stroke="#000000" points="3164.0548,-181.5001 3174.0547,-178 3164.0547,-174.5001 3164.0548,-181.5001"/>
</g>
<!-- MapControlsProvider -->
<g id="node43" class="node">
<title>MapControlsProvider</title>
<ellipse fill="#fdb462" stroke="#000000" cx="835" cy="-104" rx="95.0062" ry="18"/>
<text text-anchor="middle" x="835" y="-99.8" font-family="Times,serif" font-size="14.00" fill="#000000">MapControlsProvider</text>
</g>
<!-- MapControlsProvider&#45;&gt;AppModule -->
<g id="edge42" class="edge">
<title>MapControlsProvider&#45;&gt;AppModule</title>
<path fill="none" stroke="#000000" d="M835,-122.1554C835,-144.3519 835,-179 835,-179 835,-179 3164.1695,-179 3164.1695,-179"/>
<polygon fill="#000000" stroke="#000000" points="3164.1695,-182.5001 3174.1695,-179 3164.1694,-175.5001 3164.1695,-182.5001"/>
</g>
<!-- ParseProvider -->
<g id="node44" class="node">
<title>ParseProvider</title>
<ellipse fill="#fdb462" stroke="#000000" cx="657" cy="-104" rx="65.4053" ry="18"/>
<text text-anchor="middle" x="657" y="-99.8" font-family="Times,serif" font-size="14.00" fill="#000000">ParseProvider</text>
</g>
<!-- ParseProvider&#45;&gt;AppModule -->
<g id="edge43" class="edge">
<title>ParseProvider&#45;&gt;AppModule</title>
<path fill="none" stroke="#000000" d="M657,-122.2479C657,-145.0179 657,-181 657,-181 657,-181 3164.2448,-181 3164.2448,-181"/>
<polygon fill="#000000" stroke="#000000" points="3164.2449,-184.5001 3174.2448,-181 3164.2448,-177.5001 3164.2449,-184.5001"/>
</g>
<!-- QueryServiceProvider -->
<g id="node45" class="node">
<title>QueryServiceProvider</title>
<ellipse fill="#fdb462" stroke="#000000" cx="476" cy="-104" rx="97.2509" ry="18"/>
<text text-anchor="middle" x="476" y="-99.8" font-family="Times,serif" font-size="14.00" fill="#000000">QueryServiceProvider</text>
</g>
<!-- QueryServiceProvider&#45;&gt;AppModule -->
<g id="edge44" class="edge">
<title>QueryServiceProvider&#45;&gt;AppModule</title>
<path fill="none" stroke="#000000" d="M476,-122.3228C476,-145.6602 476,-183 476,-183 476,-183 3164.3296,-183 3164.3296,-183"/>
<polygon fill="#000000" stroke="#000000" points="3164.3296,-186.5001 3174.3296,-183 3164.3296,-179.5001 3164.3296,-186.5001"/>
</g>
<!-- UiUxProvider -->
<g id="node46" class="node">
<title>UiUxProvider</title>
<ellipse fill="#fdb462" stroke="#000000" cx="295" cy="-104" rx="65.991" ry="18"/>
<text text-anchor="middle" x="295" y="-99.8" font-family="Times,serif" font-size="14.00" fill="#000000">UiUxProvider</text>
</g>
<!-- UiUxProvider&#45;&gt;AppModule -->
<g id="edge45" class="edge">
<title>UiUxProvider&#45;&gt;AppModule</title>
<path fill="none" stroke="#000000" d="M295,-122.1532C295,-145.7566 295,-184 295,-184 295,-184 3164.1466,-184 3164.1466,-184"/>
<polygon fill="#000000" stroke="#000000" points="3164.1467,-187.5001 3174.1466,-184 3164.1466,-180.5001 3164.1467,-187.5001"/>
</g>
<!-- UserpositionProvider -->
<g id="node47" class="node">
<title>UserpositionProvider</title>
<ellipse fill="#fdb462" stroke="#000000" cx="118" cy="-104" rx="93.7784" ry="18"/>
<text text-anchor="middle" x="118" y="-99.8" font-family="Times,serif" font-size="14.00" fill="#000000">UserpositionProvider</text>
</g>
<!-- UserpositionProvider&#45;&gt;AppModule -->
<g id="edge46" class="edge">
<title>UserpositionProvider&#45;&gt;AppModule</title>
<path fill="none" stroke="#000000" d="M118,-122.1985C118,-146.3563 118,-186 118,-186 118,-186 3164.2589,-186 3164.2589,-186"/>
<polygon fill="#000000" stroke="#000000" points="3164.2589,-189.5001 3174.2589,-186 3164.2588,-182.5001 3164.2589,-189.5001"/>
</g>
</g>
</svg>
